<?xml version="1.0" standalone="no"?>
<!DOCTYPE svg PUBLIC "-//W3C//DTD SVG 20010904//EN"
 "http://www.w3.org/TR/2001/REC-SVG-20010904/DTD/svg10.dtd">
<svg version="1.0" xmlns="http://www.w3.org/2000/svg"
 width="847.000000pt" height="847.000000pt" viewBox="0 0 847.000000 847.000000"
 preserveAspectRatio="xMidYMid meet">
<metadata>
Created by potrace 1.11, written by Peter Selinger 2001-2013
</metadata>
<g transform="translate(0.000000,847.000000) scale(0.100000,-0.100000)"
fill="#000000" stroke="none">
<path d="M4129 7862 c-125 -92 -305 -224 -400 -294 -96 -70 -179 -132 -185
-137 -7 -5 -45 -34 -85 -63 -41 -29 -83 -61 -93 -70 -11 -10 -23 -18 -27 -18
-4 0 -14 -6 -21 -13 -7 -7 -47 -38 -88 -67 -41 -30 -77 -57 -80 -60 -15 -16
-80 -60 -89 -60 -6 0 -11 -4 -11 -9 0 -4 -19 -21 -42 -37 -37 -25 -78 -54
-113 -82 -6 -5 -23 -17 -38 -26 -34 -23 -34 -28 1 -107 28 -61 36 -82 42 -104
2 -5 14 -30 26 -54 13 -24 21 -47 18 -52 -3 -5 0 -9 7 -9 7 0 10 -3 6 -6 -3
-4 1 -13 9 -21 8 -9 13 -22 10 -29 -3 -8 -2 -14 3 -14 12 0 61 -121 54 -134
-3 -6 -2 -8 2 -3 11 10 37 -51 28 -67 -3 -6 -2 -8 2 -4 5 5 26 -31 47 -78 31
-71 36 -90 26 -103 -10 -13 -10 -14 2 -4 12 11 18 4 37 -42 13 -31 21 -61 17
-67 -4 -6 -3 -8 4 -4 6 3 15 -9 23 -31 6 -21 19 -48 27 -61 8 -12 12 -25 9
-29 -3 -3 1 -12 9 -20 8 -9 13 -22 10 -30 -3 -8 -2 -12 2 -9 5 3 19 -21 32
-52 13 -31 36 -86 52 -120 16 -35 30 -69 31 -75 1 -7 4 -14 7 -17 15 -15 80
-182 74 -192 -4 -6 -3 -8 3 -5 14 9 37 -48 29 -68 -3 -10 -2 -13 4 -10 9 6 34
-39 42 -76 2 -8 5 -16 8 -19 3 -3 12 -18 19 -35 l14 -30 18 60 c11 33 21 69
23 80 2 11 9 32 15 48 6 15 9 27 6 27 -2 0 2 19 11 41 8 23 16 51 18 63 10 54
42 161 49 164 4 2 5 7 3 11 -3 4 2 32 10 62 8 30 22 83 31 119 9 36 18 67 22
70 3 3 7 13 8 24 3 38 37 155 43 151 4 -3 5 7 2 20 -2 14 0 25 4 25 5 0 10 14
10 31 1 17 5 34 10 38 5 3 10 17 11 31 1 14 11 61 23 105 12 44 23 87 25 95 2
8 8 27 14 43 6 15 8 27 6 27 -2 0 0 12 6 28 6 15 13 35 15 45 2 9 6 25 8 35 2
9 17 62 32 117 15 55 29 112 32 128 2 15 8 27 12 27 5 0 7 8 5 18 -1 9 3 32
11 50 7 18 13 36 13 40 -1 20 46 182 53 182 4 0 5 6 3 13 -7 18 49 219 58 210
5 -4 5 0 2 9 -3 8 2 42 11 74 20 68 21 71 28 104 3 14 26 99 51 190 25 91 48
173 50 183 4 19 8 35 20 75 3 12 3 22 -2 21 -4 0 -110 -75 -234 -167z"/>
<path d="M4033 6625 c0 -8 4 -12 9 -9 5 3 6 10 3 15 -9 13 -12 11 -12 -6z"/>
<path d="M5619 6343 c-2 -4 -22 -20 -44 -35 -35 -23 -442 -323 -470 -345 -5
-5 -73 -54 -150 -110 -77 -57 -247 -181 -378 -278 -131 -96 -242 -175 -247
-175 -6 0 -10 -3 -10 -8 0 -4 -52 -45 -115 -91 -110 -80 -134 -108 -104 -127
6 -3 9 -15 6 -25 -3 -11 -2 -17 2 -14 4 2 15 -15 25 -38 10 -23 31 -70 47
-105 16 -35 29 -65 29 -67 0 -2 11 -28 24 -57 82 -180 135 -311 130 -320 -4
-6 -2 -8 4 -4 6 3 14 -4 17 -16 4 -13 21 -52 37 -88 16 -36 33 -74 38 -85 18
-44 39 -93 64 -149 15 -32 25 -65 22 -72 -3 -8 0 -13 5 -11 14 3 71 -132 62
-146 -3 -6 -1 -7 5 -3 7 4 12 2 12 -4 0 -6 9 -29 20 -52 11 -22 17 -44 15 -49
-3 -4 -1 -9 4 -11 14 -5 72 -140 67 -155 -3 -8 -2 -12 3 -9 9 6 38 -52 33 -66
-1 -5 2 -8 8 -8 13 0 13 -27 0 -33 -6 -3 -5 -4 2 -3 7 2 27 -26 44 -63 l31
-66 15 55 c16 57 86 314 92 340 2 8 23 87 46 175 23 88 43 165 45 170 1 6 4
17 7 25 3 8 21 72 39 142 18 70 37 125 41 122 4 -3 5 2 2 10 -3 8 8 65 25 126
17 61 31 117 31 125 0 8 4 15 9 15 5 0 8 6 7 13 -2 23 28 137 37 137 4 0 6 4
3 9 -4 5 3 38 14 73 11 34 20 71 20 81 0 10 3 16 8 14 4 -3 8 14 9 36 1 23 6
43 12 45 6 2 9 7 7 10 -2 4 5 41 16 82 11 41 20 81 20 88 1 6 5 12 10 12 5 0
7 4 4 8 -3 5 2 31 10 58 12 41 77 285 88 334 2 8 10 35 17 60 7 25 13 47 14
50 2 15 28 107 33 120 7 21 7 20 16 68 4 23 12 40 17 37 5 -4 6 1 3 9 -3 8 9
65 26 126 17 61 29 114 27 116 -3 3 -7 2 -8 -3z"/>
<path d="M3567 5035 c-20 -70 -33 -103 -40 -99 -9 5 -9 4 -1 -5 8 -8 -1 -55
-33 -169 -24 -86 -45 -166 -48 -177 -2 -11 -13 -51 -25 -90 -11 -38 -22 -81
-25 -95 -2 -14 -11 -50 -20 -80 -9 -30 -18 -64 -21 -75 -7 -26 -8 -32 -23 -85
-13 -43 -15 -54 -26 -101 -2 -12 -9 -37 -15 -55 -6 -18 -13 -45 -16 -60 -3
-15 -8 -32 -12 -38 -3 -6 -7 -17 -8 -26 -1 -8 -13 -58 -27 -110 -14 -52 -35
-131 -46 -175 -12 -44 -24 -87 -28 -95 -3 -8 -7 -19 -7 -25 -4 -39 -40 -155
-48 -155 -5 0 -7 -4 -3 -9 3 -6 -15 -88 -40 -183 -26 -95 -57 -213 -70 -263
-13 -49 -40 -151 -60 -225 -21 -74 -39 -142 -40 -150 -2 -8 -4 -15 -5 -15 -1
0 -3 -7 -5 -15 -2 -8 -15 -58 -29 -110 -23 -88 -26 -122 -7 -91 5 8 14 10 21
6 8 -5 11 -4 6 3 -3 6 3 16 14 22 11 6 56 38 100 72 43 33 84 57 90 53 6 -3 9
-2 8 4 -4 14 153 132 165 124 6 -3 7 -2 4 4 -4 5 5 16 18 23 14 7 25 17 25 22
0 4 5 8 11 8 6 0 17 6 24 13 34 30 43 35 49 30 3 -4 6 -1 6 6 0 13 70 58 83
53 5 -1 6 2 2 7 -3 6 4 15 17 22 12 6 33 22 47 35 14 14 32 22 39 19 7 -3 11
-1 8 3 -9 15 201 162 221 156 13 -4 14 -3 5 4 -13 8 26 42 128 112 21 14 49
37 77 60 7 5 17 10 23 10 5 0 10 5 10 11 0 5 4 8 9 5 5 -3 12 1 15 10 4 9 13
14 22 10 8 -3 12 -2 9 3 -7 12 35 42 48 34 6 -3 7 -1 4 4 -4 6 0 16 8 23 8 7
15 10 15 6 0 -3 9 2 19 12 26 22 34 29 114 85 37 27 66 51 63 55 -7 13 -56
123 -82 185 -14 34 -37 83 -50 110 -13 26 -21 47 -19 47 3 0 -4 17 -14 38 -11
20 -26 53 -34 72 -9 19 -29 66 -46 103 -17 38 -31 70 -31 72 0 4 -23 57 -81
183 -16 35 -29 65 -29 67 0 3 -14 34 -30 70 -17 37 -27 71 -24 77 4 7 2 8 -4
4 -7 -4 -12 -3 -12 3 0 6 -11 35 -25 66 -14 30 -36 79 -49 108 -13 28 -42 97
-66 152 -23 55 -55 128 -71 162 -15 35 -45 101 -65 148 -20 47 -37 85 -38 85
0 0 -14 -47 -29 -105z"/>
<path d="M4850 3437 c0 -9 -3 -17 -7 -17 -5 0 -8 -12 -9 -27 -1 -16 -13 -73
-28 -128 -15 -55 -30 -110 -33 -122 -3 -13 -10 -23 -15 -23 -5 0 -7 -4 -3 -10
3 -5 -4 -44 -15 -87 -12 -43 -27 -102 -35 -132 -7 -29 -19 -57 -26 -62 -10 -6
-10 -9 -2 -9 10 0 10 -7 2 -27 -6 -16 -13 -39 -15 -53 -3 -14 -21 -81 -40
-150 -20 -69 -37 -133 -39 -142 -2 -9 -16 -61 -30 -115 -15 -54 -40 -150 -57
-213 -16 -63 -32 -119 -36 -124 -3 -6 -7 -19 -8 -31 -1 -11 -14 -63 -29 -115
-26 -93 -31 -112 -41 -157 -2 -12 -9 -35 -15 -50 -6 -16 -11 -30 -11 -33 0 -3
-2 -9 -3 -15 -2 -5 -10 -41 -20 -80 -9 -38 -21 -81 -26 -95 -9 -25 -17 -63
-18 -88 -1 -7 -6 -10 -13 -6 -7 4 -8 3 -4 -4 4 -6 -5 -55 -19 -109 -56 -213
-90 -328 -97 -331 -5 -2 -6 -8 -2 -13 3 -5 -1 -33 -10 -62 -8 -28 -24 -88 -36
-132 -11 -44 -23 -88 -26 -98 -5 -17 -3 -17 17 -7 12 7 31 20 41 30 10 9 44
35 76 56 31 21 68 49 82 61 14 13 28 23 31 23 3 0 16 9 29 20 12 11 28 17 34
13 6 -3 8 -2 4 2 -9 10 173 146 185 138 4 -2 6 0 5 5 -2 5 31 35 74 66 76 56
96 66 82 44 -4 -7 -3 -8 5 -4 6 4 9 11 6 16 -8 13 62 63 79 57 9 -4 13 -1 11
6 -5 14 50 60 71 60 8 0 12 2 10 5 -7 6 49 52 63 52 6 0 11 3 11 8 1 4 24 23
51 42 28 19 65 46 82 60 17 14 27 19 23 11 -5 -8 10 5 34 28 24 24 49 40 57
37 8 -3 12 -2 9 3 -3 5 1 14 9 21 12 10 19 10 33 -1 15 -13 16 -12 4 3 -12 14
-10 19 15 35 15 10 64 45 108 78 44 33 108 80 142 105 61 44 61 44 47 72 -8
15 -14 30 -14 33 0 3 -11 31 -26 63 -14 31 -55 125 -91 207 -36 83 -77 177
-92 210 -15 33 -40 89 -56 125 -15 36 -48 109 -72 163 -23 55 -40 104 -36 110
3 7 2 9 -2 5 -7 -7 -88 162 -97 202 -2 8 -5 17 -8 20 -3 3 -19 34 -34 70 -16
36 -39 88 -51 115 -12 28 -41 93 -63 145 -110 254 -122 279 -122 247z"/>
</g>
</svg>
